<svg xmlns="http://www.w3.org/2000/svg" viewBox="0 0 600 480"><defs><linearGradient id="w" x2=".4" y2="1"><stop stop-color="#999cd3"/><stop offset=".5" stop-color="#454978"/><stop offset="1" stop-color="#1b2646"/></linearGradient><linearGradient id="c"><stop stop-color="#bddff5"/><stop offset="1" stop-color="#ad8bea"/></linearGradient></defs><ellipse cx="300" cy="411" rx="183" ry="24" fill="#10152b"/><path d="m288 290 12 48-20 47 22 41 21-67-10-69" fill="#6a6ca6" stroke="#b7a9df" stroke-width="3"/><path d="M275 171 202 126 64 117 116 198 44 257 126 248 168 326 260 281m65-110 73-45 138-9-52 81 72 59-82-9-42 78-92-45" fill="url(#w)" stroke="#a19ccd" stroke-width="4"/><path d="m79 126 141 45 44 58-107-35m364-68-141 45-44 58 107-35" fill="#6f7cb0"/><path d="m128 237 93-20 40 48-84 35m295-63-93-20-40 48 84 35" fill="#2e3c64"/><path d="m300 79 42 73 25 74-34 83h-66l-34-83 25-74Z" fill="url(#w)" stroke="#b6b3e1" stroke-width="4"/><path d="m300 109 15 72-15 36-15-36Z" fill="#899ace"/><path d="m251 205 37 16-11 15-24-10m96-21-37 16 11 15 24-10" fill="#bff8ff"/><path d="m300 249 25 24-25 27-25-27Z" fill="url(#c)"/><g fill="#a6b8e8"><path d="m113 160 12 9-10 9-11-9m83 96 12 9-10 9-11-9m294-123-12 9 10 9 11-9m-83 96-12 9 10 9 11-9"/></g><g fill="none" stroke="#a492d2" stroke-width="2"><ellipse cx="300" cy="245" rx="191" ry="125" stroke-dasharray="2 20"/><path d="m300 40 8 14-8 14-8-14Z"/></g></svg>
